<?xml version="1.0" standalone="no"?>
<!DOCTYPE svg PUBLIC "-//W3C//DTD SVG 20010904//EN"
 "http://www.w3.org/TR/2001/REC-SVG-20010904/DTD/svg10.dtd">
<svg version="1.0" xmlns="http://www.w3.org/2000/svg"
 width="168.000000pt" height="168.000000pt" viewBox="0 0 168.000000 168.000000"
 preserveAspectRatio="xMidYMid meet">

<g transform="translate(0.000000,168.000000) scale(0.100000,-0.100000)"
fill="#000000" stroke="none">
<path d="M670 1655 c-169 -36 -287 -101 -416 -230 -90 -89 -106 -111 -152
-205 -74 -150 -87 -206 -87 -380 0 -174 13 -230 87 -380 45 -93 62 -116 152
-206 90 -90 113 -107 206 -152 150 -74 206 -87 380 -87 174 0 230 13 380 87
93 45 116 62 206 152 90 90 107 113 152 206 74 150 87 206 87 380 0 174 -13
230 -87 380 -45 93 -62 116 -152 206 -90 90 -112 107 -206 152 -58 29 -132 59
-165 68 -83 22 -301 27 -385 9z m160 -202 c0 -67 -22 -256 -40 -351 -25 -125
-71 -257 -90 -257 -19 0 -85 115 -111 193 -29 87 -48 203 -49 293 l0 77 53 20
c80 32 138 45 215 51 18 1 22 -4 22 -26z m190 0 c30 -8 72 -24 93 -35 l39 -20
-7 -86 c-9 -116 -30 -222 -62 -305 -26 -70 -79 -158 -99 -164 -17 -6 -63 127
-90 262 -14 67 -28 176 -31 248 l-6 128 54 -6 c30 -4 79 -13 109 -22z m-514
-159 c-9 -113 -47 -260 -86 -332 -57 -107 -186 -228 -221 -206 -8 5 -10 35 -6
104 9 151 62 283 154 389 49 57 138 131 155 131 7 0 8 -28 4 -86z m733 50 c99
-79 166 -170 212 -289 27 -67 32 -98 37 -192 3 -82 2 -113 -7 -113 -21 0 -95
52 -137 95 -95 100 -143 236 -169 478 -8 69 0 71 64 21z m-626 -577 c21 -26
37 -50 37 -53 0 -4 -17 -34 -37 -67 -43 -71 -149 -187 -210 -228 l-42 -29 -41
51 c-35 45 -96 158 -88 164 2 1 29 16 60 34 76 42 150 126 194 218 l37 76 27
-59 c15 -32 43 -80 63 -107z m275 3 c55 -200 134 -358 234 -466 44 -47 43 -49
-42 -82 -91 -35 -130 -42 -235 -42 -70 0 -122 6 -174 20 -62 18 -125 43 -140
56 -2 2 14 25 36 52 112 132 214 354 253 547 16 78 22 87 33 45 4 -19 20 -78
35 -130z m311 84 c40 -89 130 -187 204 -223 26 -12 47 -27 47 -33 0 -17 -51
-112 -86 -161 l-35 -48 -30 18 c-62 36 -150 127 -209 214 l-60 90 45 60 c25
34 53 83 62 110 10 27 20 49 23 49 3 0 20 -34 39 -76z"/>
</g>
</svg>
